PathFileType	4	(X/Y/Z)	C:\Users\WrightLab\Desktop\Jo\P1.2Trial7.trc
DataRate	CameraRate	NumFrames	NumMarkers	Units	OrigDataRate	OrigDataStartFrame	OrigNumFrames
100.00	100.00	       9	19	mm	100.00	405	       539
Frame#	Time	Headset_Front			Headset_Back			Headset_Left			Headset_Right			Left_Shoulder			Right_Shoulder			Sternum			C7			Left Elbow			Right Elbow			Left Wrist			Right Wrist			Left ASIS			Right ASIS			S2			Left Knee			Right Knee			Left Ankle			Right Ankle			
		X1	Y1	Z1	X2	Y2	Z2	X3	Y3	Z3	X4	Y4	Z4	X5	Y5	Z5	X6	Y6	Z6	X7	Y7	Z7	X8	Y8	Z8	X9	Y9	Z9	X10	Y10	Z10	X11	Y11	Z11	X12	Y12	Z12	X13	Y13	Z13	X14	Y14	Z14	X15	Y15	Z15	X16	Y16	Z16	X17	Y17	Z17	X18	Y18	Z18	X19	Y19	Z19	

405	4.040	-104.11391	1440.47986	1776.38794				82.18947	1504.16382	1701.41406				234.67191	1303.98279	1701.35461	-151.54840	1278.28003	1518.96973	-5.95658	1232.49426	1724.73523	86.03365	1338.67407	1505.68530	333.05853	1025.40588	1714.96021	-194.76024	1029.81067	1452.20386	352.02631	838.41980	1871.25317	-265.68280	776.44708	1518.69128	138.95729	933.87006	1775.49133	-117.78862	901.50403	1683.01099	125.25214	941.96619	1460.42822	205.52577	477.68079	1739.88403	-143.38144	527.00134	1796.13684	281.73761	148.56177	1591.74292	-91.75231	170.79649	1788.59534	
406	4.050	-109.03091	1438.74768	1785.24976				78.66691	1502.08972	1711.62305				230.69612	1302.79089	1714.30042	-153.75439	1277.26318	1527.31226	-9.99518	1230.07654	1734.08276	83.91933	1337.27942	1517.07129	331.26672	1024.39685	1730.90283	-196.39709	1029.12781	1457.55713	345.80634	839.06323	1890.37012	-267.23468	775.07599	1520.66663	137.05263	932.45007	1785.02734	-120.78494	899.17480	1691.86694	121.75565	942.23230	1469.77380	202.05917	474.64743	1745.58899	-143.80701	524.61230	1804.56641	281.29050	149.10110	1592.16113	-104.04540	169.25699	1815.75452	
407	4.060	-114.14391	1437.57373	1793.88538				73.98606	1501.33032	1722.63733				226.95544	1301.53760	1726.52722	-156.14888	1274.50330	1536.86108	-13.85486	1228.29114	1744.86365	81.47438	1335.97620	1527.90210	329.12146	1024.11121	1747.67139	-196.39963	1026.92407	1460.98950	337.90677	837.98987	1902.77100	-269.24814	772.85992	1523.27759	134.12621	930.61194	1793.05469	-124.18887	896.75323	1701.04944	117.15074	941.05542	1478.15173	198.20549	472.77686	1750.83167	-143.49712	520.95056	1812.22131	280.88361	149.35152	1592.35730	-115.96863	168.67978	1841.77893	
408	4.070	-119.56521	1435.52905	1803.17529				69.19072	1499.37793	1732.42578				222.86261	1299.84741	1738.49146	-158.53146	1272.43079	1545.49719	-17.31237	1225.90869	1755.64087	79.15390	1334.23364	1538.96875	324.63971	1022.38898	1762.86255	-197.52974	1025.25220	1467.21497	332.50159	837.49469	1922.09265	-270.10403	769.52222	1527.30310	132.13574	929.74915	1803.81653	-128.38916	894.98169	1711.73987	112.85913	940.51410	1485.88745	194.98636	469.84885	1755.74756	-143.74666	516.54059	1820.21802	280.40628	149.25630	1592.97644	-128.43053	170.50026	1867.00500	
409	4.080	-124.33357	1433.30066	1810.74158				64.10224	1497.31177	1743.08374				219.01956	1297.81274	1750.14954	-161.11432	1269.69958	1554.01721	-21.91405	1223.69556	1765.32764	76.22424	1332.61157	1550.05347	320.96811	1021.93628	1778.40381	-198.43013	1023.31873	1473.64990	323.99246	836.79651	1936.72852	-271.10956	767.42529	1530.06030	129.48761	927.17267	1812.08276	-132.47491	892.64417	1721.51953	109.00893	940.27283	1496.11877	192.02505	466.84079	1760.59546	-144.17500	512.02655	1827.70618	279.88089	149.20894	1593.84985	-140.90617	173.47099	1891.93970	
410	4.090	-129.94957	1431.60498	1819.03821				60.11083	1495.15613	1752.66492				214.27089	1295.99695	1761.70166	-164.62833	1267.54614	1563.75146	-25.99168	1220.43567	1774.82996				316.79330	1019.80255	1793.88770	-199.53839	1021.24933	1480.42004	316.53979	836.19403	1953.24133	-272.61542	764.94208	1532.94836	127.13754	925.36340	1823.28882	-136.47934	890.00488	1730.60828	102.96519	938.43585	1505.10925	189.67393	464.14871	1765.22070	-144.54462	506.94083	1836.11621	279.53168	149.80742	1593.94153	-153.37976	177.95265	1913.75757	
411	4.100	-135.63643	1428.88074	1826.54529				55.32627	1493.26160	1763.25647				209.57474	1293.51282	1772.87012	-168.11246	1265.15002	1573.23730	-30.15607	1218.61401	1785.88245				313.03195	1018.30945	1809.53430	-200.01410	1017.94379	1490.71619	309.13409	835.97040	1969.41418	-274.74094	762.88251	1535.69263	123.70004	921.94080	1832.02112	-141.12045	887.38525	1741.34229	97.64155	937.12183	1514.64575	186.91586	461.60187	1771.54810	-145.13486	502.11975	1844.16370	279.42566	150.13229	1595.20581	-163.36266	183.02600	1933.17834	
412	4.110	-141.40334	1427.26270	1834.73657	65.51545	1325.28638	1581.14868	49.97671	1491.09619	1774.19446				204.88319	1291.00439	1783.61926	-171.53484	1262.47253	1581.77063	-34.37252	1216.50110	1797.02710				308.02368	1016.57501	1825.41565	-201.14116	1014.95184	1498.68127	301.83881	834.97095	1984.93665	-277.88123	760.74158	1539.40649	119.41642	920.68604	1844.47888	-145.54500	885.31116	1751.70227	92.76271	935.14496	1525.49768	184.86638	459.35623	1776.53320	-148.63623	497.69489	1851.83667	278.92117	151.69266	1596.48352	-173.86913	189.57204	1952.40564	
413	4.120	-147.23421	1425.68359	1843.77368	61.54536	1322.63794	1591.33643	44.68992	1488.59937	1784.31628				199.93733	1288.27295	1794.48389	-175.52567	1260.27625	1590.67053	-38.58856	1213.85913	1806.17004				303.29327	1015.04022	1842.69019	-202.70937	1014.22021	1504.72217	294.36902	834.10486	2000.60522	-279.76169	758.79004	1542.66931	115.25152	917.99554	1855.04431	-150.29080	882.99731	1762.68860	86.90907	932.52844	1535.37244	182.58629	456.92926	1782.44531	-151.39006	493.23590	1860.03809	278.37695	152.26248	1596.81409	-181.65866	192.89389	1967.89063	
